<svg width="58" height="58" viewBox="0 0 58 58" fill="none" xmlns="http://www.w3.org/2000/svg">
<g clip-path="url(#clip0_1_14)">
<path fill-rule="evenodd" clip-rule="evenodd" d="M3.67333 17.342C3.67333 18.9315 4.30477 20.456 5.42874 21.5799C6.55271 22.7039 8.07713 23.3353 9.66667 23.3353C11.2562 23.3353 12.7806 22.7039 13.9046 21.5799C15.0286 20.456 15.66 18.9315 15.66 17.342C15.66 15.7525 15.0286 14.228 13.9046 13.1041C12.7806 11.9801 11.2562 11.3487 9.66667 11.3487C8.07713 11.3487 6.55271 11.9801 5.42874 13.1041C4.30477 14.228 3.67333 15.7525 3.67333 17.342ZM9.66667 26.8153C7.63838 26.8151 5.66371 26.1639 4.0332 24.9575C2.40268 23.7511 1.2024 22.0533 0.608954 20.1138C0.0155095 18.1742 0.060233 16.0954 0.736544 14.1832C1.41286 12.271 2.68504 10.6263 4.36594 9.49121C6.04683 8.35607 8.04768 7.79039 10.0741 7.87739C12.1005 7.9644 14.0455 8.69949 15.6229 9.97453C17.2003 11.2496 18.3269 12.9972 18.8368 14.9604C19.3467 16.9235 19.2131 18.9985 18.4556 20.88L22.1831 23.3701L22.1057 23.6331L21.5103 25.7597L20.1453 26.6723L16.3019 24.1048C14.5928 25.7791 12.2496 26.8153 9.66667 26.8153ZM3.67333 40.6C3.67333 39.0105 4.30477 37.486 5.42874 36.3621C6.55271 35.2381 8.07713 34.6067 9.66667 34.6067C11.2562 34.6067 12.7806 35.2381 13.9046 36.3621C15.0286 37.486 15.66 39.0105 15.66 40.6C15.66 42.1895 15.0286 43.714 13.9046 44.8379C12.7806 45.9619 11.2562 46.5933 9.66667 46.5933C8.07713 46.5933 6.55271 45.9619 5.42874 44.8379C4.30477 43.714 3.67333 42.1895 3.67333 40.6ZM9.66667 31.1267C7.64016 31.1269 5.66713 31.777 4.03738 32.9814C2.40763 34.1858 1.20706 35.8811 0.612004 37.8183C0.0169509 39.7555 0.0587797 41.8324 0.731347 43.7441C1.40391 45.6557 2.67177 47.3013 4.34869 48.4391C6.02562 49.577 8.02322 50.1471 10.0481 50.0657C12.073 49.9843 14.0184 49.2558 15.5986 47.9871C17.1788 46.7184 18.3106 44.9763 18.8276 43.0169C19.3446 41.0575 19.2196 38.9839 18.4711 37.1007L58 10.6604L54.3228 11.0471C49.1372 11.5927 44.1156 13.1816 39.5599 15.718L27.6699 22.33C27.2234 22.5794 26.8308 22.915 26.5148 23.3172C26.1989 23.7194 25.9659 24.1803 25.8293 24.6732L24.8511 28.1764L16.3328 33.872C14.5618 32.1105 12.1645 31.1233 9.66667 31.1267ZM27.6235 35.6313L27.6699 35.6584L39.5599 42.2704C44.1156 44.8068 49.1372 46.3957 54.3228 46.9413L58 47.328L34.0653 31.32L27.6235 35.6313Z" fill="white"/>
</g>
<defs>
<clipPath id="clip0_1_14">
<rect width="58" height="58" fill="white"/>
</clipPath>
</defs>
</svg>
