<svg width="60" height="60" viewBox="0 0 60 60" fill="none" xmlns="http://www.w3.org/2000/svg">
<path d="M54.2175 15.0187L29.9119 3.53812C29.6773 3.42866 29.4211 3.37339 29.1623 3.37641C28.9035 3.37942 28.6487 3.44064 28.4167 3.55553C28.1848 3.67042 27.9817 3.83604 27.8224 4.04011C27.6632 4.24417 27.5519 4.48146 27.4969 4.73437C27.4913 4.75312 25.5469 13.7906 22.6594 22.8C21.675 25.8881 20.5725 28.9406 19.4213 31.6219L22.5431 33.0956C26.2931 24.3919 29.2631 12.3769 30.3806 7.57125L51.5062 17.5369C50.8575 20.3737 49.1944 27.33 46.9687 34.275C45.5306 38.775 43.8469 43.2694 42.1219 46.5225C40.4531 49.8787 38.4506 51.5287 38.0025 51.3075C35.34 51.3637 33.4687 48.9412 32.2087 45.8362C31.6788 44.4702 31.2666 43.0613 30.9769 41.625C30.7369 40.4662 30.6638 39.7387 30.6581 39.7387C30.6294 39.4453 30.5242 39.1645 30.3531 38.9244C30.1821 38.6842 29.9511 38.4931 29.6831 38.37L5.38313 26.895C5.10646 26.7636 4.7998 26.7083 4.49466 26.7346C4.18953 26.761 3.89691 26.8681 3.64688 27.045C3.39798 27.2228 3.20083 27.4635 3.07563 27.7426C2.95042 28.0217 2.90168 28.329 2.93438 28.6331C2.94938 28.7194 3.3 32.1019 4.71 35.64C5.68875 38.115 7.34812 40.9237 10.0462 42.3431L34.3387 53.8369L34.35 53.8144C35.4037 54.3675 36.6 54.7275 38.0006 54.7444C41.37 54.525 43.2075 51.6169 45.1594 48.135C50.7844 37.4662 55.1344 17.01 55.1681 16.935C55.2514 16.5563 55.2031 16.1605 55.0314 15.8129C54.8596 15.4652 54.5745 15.1865 54.2231 15.0225L54.2175 15.0187Z" fill="white"/>
</svg>
