<svg width="57" height="57" viewBox="0 0 57 57" fill="none" xmlns="http://www.w3.org/2000/svg">
<path d="M25.3494 2.7832L18.9035 9.23578L20.4176 16.8105H36.5824L38.0965 9.23578L34.4449 5.57977L31.4502 7.125L33.2648 4.39412L31.6506 2.7832H25.3494ZM21.709 9.84586L26.7188 12.3574L26.2734 14.25H21.709V9.84586ZM35.291 9.84586V14.25H30.7266L30.2813 12.3574L33.8438 10.5706L35.291 9.84586ZM17.1445 12.1459L14.6953 13.3705L15.8754 15.2742L13.1924 14.1164L8.12695 16.6547V18.4359L18.3469 16.9775L17.1445 12.1459ZM39.8555 12.1459L38.6531 16.9775L48.873 18.4359V16.6547L39.8555 12.1459ZM22.8891 18.8367L15.842 19.36L15.1072 19.4713L14.083 26.407L19.6717 29.2014L24.6258 27.5537L25.2492 29.4463L19.5158 31.3611L14.5729 28.8896L16.8439 38.2969L27.498 39.8109V21.9094L22.8891 18.8367ZM34.1109 18.8367L29.502 21.9094V39.8109L40.1561 38.2969L42.4272 28.8896L39.7775 30.2145L37.5955 34.5117L35.5025 30.7043L31.7508 29.4463L32.3742 27.5537L37.3283 29.2014L42.917 26.407L41.8928 19.4713L41.158 19.36L34.1109 18.8367ZM13.0031 19.7719L6.17648 20.7404L2.83219 25.2047L3.23742 28.0436L6.06293 29.2014L3.68385 31.1719L4.40414 36.215L11.4668 34.8123V28.4221L13.0031 19.7719ZM43.9969 19.7719L45.5332 28.4109V34.8012L51.3223 35.959L52.8475 34.4338L54.1723 25.2047L50.8213 20.7404L47.7041 20.2951L47.2365 22.2879L46.1344 20.0725L43.9969 19.7719ZM11.5893 36.8273L4.76262 38.1855L7.8798 52.2129L13.159 50.8992L11.5893 36.8273ZM45.4107 36.8273L43.841 50.8992L46.357 51.5227L47.2365 48.6504L49.2182 51.7787L52.2352 38.1855L45.4107 36.8273ZM16.9107 40.323L15.3744 54.2168H24.3141L28.5 45.8561L32.6859 54.2168H36.1148L37.4063 51.6562L38.6865 54.2168H41.6256L40.0893 40.323L28.5 41.9818L23.8354 41.3139L23.1563 45.1436L21.4529 40.9688L16.9107 40.323Z" fill="white"/>
</svg>
